<svg xmlns="http://www.w3.org/2000/svg" width="15" height="15" viewBox="0 0 15 15">
  <g id="Group_269" data-name="Group 269" transform="translate(-703 -382)">
    <rect id="Rectangle_612" data-name="Rectangle 612" width="15" height="15" transform="translate(703 382)" fill="#06529c"/>
    <g id="icons_utility_check-copy" data-name="icons/utility/check-copy" transform="translate(706.385 386.923)">
      <path id="Mask" d="M3.446,5.664.691,2.891a.262.262,0,0,1,0-.367l.367-.367a.262.262,0,0,1,.367,0L3.5,4.244a.182.182,0,0,0,.251,0L7.805.152a.262.262,0,0,1,.367,0L8.54.52a.262.262,0,0,1,0,.367L3.814,5.664a.236.236,0,0,1-.367,0Z" fill="#fff"/>
    </g>
  </g>
</svg>
