<svg xmlns="http://www.w3.org/2000/svg" width="24" height="24" viewBox="0 0 24 24">
  <g id="icons_utility_ban" data-name="icons/utility/ban" transform="translate(-0.615 -0.615)">
    <path id="Mask" d="M12.615.615a12,12,0,1,0,12,12A12.035,12.035,0,0,0,12.615.615Zm-9,12a9.026,9.026,0,0,1,9-9,8.824,8.824,0,0,1,5.2,1.65L5.265,17.815a8.824,8.824,0,0,1-1.65-5.2Zm9,9a8.824,8.824,0,0,1-5.2-1.65l12.55-12.55a8.824,8.824,0,0,1,1.65,5.2A9.026,9.026,0,0,1,12.615,21.615Z" transform="translate(0 0)" fill="#d80505"/>
  </g>
</svg>
