<svg xmlns="http://www.w3.org/2000/svg" width="20.334" height="15.557" viewBox="0 0 20.334 15.557">
  <path id="Union_20" data-name="Union 20" d="M107.512,13.412a10.953,10.953,0,0,1-3.345.524,10.838,10.838,0,0,1-6.216-1.945A10.941,10.941,0,0,1,94,7a11.034,11.034,0,0,1,2.926-4.179l-1.41-1.41L96.929,0l1.625,1.625h0l2.23,2.23h0l1.309,1.309h0l1.946,1.946,7.033,7.032-1.415,1.415ZM99.545,7a4.624,4.624,0,0,0,5.977,4.419L103.86,9.759a2.779,2.779,0,0,1-2.449-2.449L99.748,5.647A4.624,4.624,0,0,0,99.545,7Zm11.614,4.4h0l-2.694-2.695a4.624,4.624,0,0,0-6-6L100.471.714A10.925,10.925,0,0,1,114.333,7a11.013,11.013,0,0,1-3.173,4.4Zm-4.226-4.225-2.94-2.939c.058,0,.116-.005.174-.005A2.776,2.776,0,0,1,106.94,7c0,.057,0,.114,0,.172v0Z" transform="translate(-94)" fill="#f6a704"/>
</svg>
