<svg xmlns="http://www.w3.org/2000/svg" width="20" height="18.333" viewBox="0 0 20 18.333">
  <g id="icons_utility_inbox" data-name="icons/utility/inbox" transform="translate(-0.615 -0.231)">
    <path id="Mask" d="M20.615,1.9A1.672,1.672,0,0,0,18.949.231H2.282A1.672,1.672,0,0,0,.615,1.9v15a1.672,1.672,0,0,0,1.667,1.667H18.949A1.672,1.672,0,0,0,20.615,16.9ZM7.7,13.147a.394.394,0,0,1-.417.417H3.532a.394.394,0,0,1-.417-.417V11.481a.394.394,0,0,1,.417-.417h3.75a.394.394,0,0,1,.417.417Zm0-4.167a.394.394,0,0,1-.417.417H3.532a.394.394,0,0,1-.417-.417V7.314A.394.394,0,0,1,3.532,6.9h3.75a.394.394,0,0,1,.417.417Zm0-4.167a.394.394,0,0,1-.417.417H3.532a.394.394,0,0,1-.417-.417V3.147a.394.394,0,0,1,.417-.417h3.75a.394.394,0,0,1,.417.417ZM18.115,15.647a.394.394,0,0,1-.417.417H9.782a.394.394,0,0,1-.417-.417V3.147a.394.394,0,0,1,.417-.417H17.7a.394.394,0,0,1,.417.417Z" transform="translate(0 0)" fill="#fff"/>
  </g>
</svg>
