<svg xmlns="http://www.w3.org/2000/svg" width="14.973" height="15" viewBox="0 0 14.973 15">
  <g id="icons_utility_new-copy" data-name="icons/utility/new-copy" transform="translate(-0.615 -0.615)">
    <path id="Mask" d="M13.413,2.794A7.509,7.509,0,0,0,2.794,13.413,7.509,7.509,0,0,0,13.413,2.794ZM13.1,8.728a.3.3,0,0,1-.312.312H9.353a.336.336,0,0,0-.312.312v3.436a.336.336,0,0,1-.312.312H7.479a.3.3,0,0,1-.312-.312V9.353a.3.3,0,0,0-.312-.312H3.419a.3.3,0,0,1-.312-.312V7.479a.336.336,0,0,1,.312-.312H6.854a.3.3,0,0,0,.312-.312V3.419a.336.336,0,0,1,.312-.312H8.728a.313.313,0,0,1,.312.312V6.854a.3.3,0,0,0,.312.312h3.436a.336.336,0,0,1,.312.312Z" fill="#06529c"/>
  </g>
</svg>
