<svg xmlns="http://www.w3.org/2000/svg" width="22.834" height="21.518" viewBox="0 0 22.834 21.518">
  <g id="warning" transform="translate(0 -14.759)">
    <g id="Group_169" data-name="Group 169" transform="translate(0 14.759)">
      <path id="Path_10" data-name="Path 10" d="M22.36,31.224,14.294,16.4a3.345,3.345,0,0,0-5.753,0L.475,31.224a3.343,3.343,0,0,0,2.876,5.053H19.483A3.344,3.344,0,0,0,22.36,31.224ZM11.417,33.6a1.338,1.338,0,1,1,1.338-1.338A1.34,1.34,0,0,1,11.417,33.6Zm1.338-5.352a1.338,1.338,0,1,1-2.676,0v-6.69a1.338,1.338,0,0,1,2.676,0Z" transform="translate(0 -14.759)" fill="#343434"/>
    </g>
  </g>
</svg>
