<svg xmlns="http://www.w3.org/2000/svg" width="28.308" height="25" viewBox="0 0 28.308 25">
  <path id="Union_2" data-name="Union 2" d="M11639.133,25a1.131,1.131,0,0,1-1.132-1.132V1.132A1.131,1.131,0,0,1,11639.133,0h26.043a1.132,1.132,0,0,1,1.133,1.132V23.868a1.132,1.132,0,0,1-1.133,1.132Zm.03-1.162,25.983-.03V6.526h-26.014Zm-.03-22.676v4.2h26.013V1.132Zm11.145,20.351a.6.6,0,0,1-.6-.6v-.983a5.374,5.374,0,0,1-2.562.656,5.423,5.423,0,1,1-.03-10.846,5.368,5.368,0,0,1,2.563.656V9.416a.6.6,0,0,1,.6-.6h11.8a.643.643,0,0,1,.626.566V20.918a.6.6,0,0,1-.6.6Zm.565-1.162h10.608V9.982h-10.608Zm-7.985-5.185a4.26,4.26,0,0,0,4.262,4.261h0a4.463,4.463,0,0,0,2.563-.834V11.77a4.254,4.254,0,0,0-6.824,3.4Zm12.634,2.771h0a.635.635,0,0,1-.447-.685l1.043-4.38a.583.583,0,0,1,.715-.447.607.607,0,0,1,.447.715l-1.043,4.38a.574.574,0,0,1-.566.447C11655.581,17.968,11655.551,17.938,11655.491,17.938Zm2.443-.894h0a.636.636,0,0,1,0-.834l1.133-1.132-1.133-1.132a.59.59,0,1,1,.835-.834l1.549,1.549a.574.574,0,0,1,0,.834l-1.549,1.549a.577.577,0,0,1-.835,0Zm-4.41,0-1.549-1.549a.576.576,0,0,1,0-.834l1.549-1.549a.59.59,0,0,1,.835.834l-1.133,1.132,1.133,1.132a.576.576,0,0,1,0,.834.577.577,0,0,1-.835,0Zm-8.343-1.877a1.937,1.937,0,1,1,1.938,1.937A1.933,1.933,0,0,1,11645.182,15.167Zm1.162,0a.769.769,0,0,0,.775.775.789.789,0,0,0,.774-.775.775.775,0,0,0-1.55,0Zm-1.46-11.919a.745.745,0,1,1,.745.745A.745.745,0,0,1,11644.884,3.248Zm-2.115,0a.745.745,0,1,1,.745.745A.745.745,0,0,1,11642.769,3.248Zm-2.146,0a.745.745,0,1,1,.745.745A.745.745,0,0,1,11640.623,3.248Z" transform="translate(-11638.001)" fill="#0b2740"/>
</svg>
