<svg xmlns="http://www.w3.org/2000/svg" width="23.992" height="25" viewBox="0 0 23.992 25">
  <path id="Union_3" data-name="Union 3" d="M11655.729,22.63h-.255a3.1,3.1,0,0,1-3.1-3.1V11.71a.847.847,0,0,1,1.693,0v2.652h2.652a3,3,0,0,0,1.157-5.756.844.844,0,0,1-.508-.706,3.694,3.694,0,0,0-3.725-3.358,3.409,3.409,0,0,0-1.072.169.859.859,0,0,1-.988-.4,5.293,5.293,0,0,0-9.847,2.709,4.367,4.367,0,0,0,.112,1.044.9.9,0,0,1-.339.846,3.02,3.02,0,0,0-.733,4.176,2.97,2.97,0,0,0,2.455,1.27h2.652V11.71a.846.846,0,1,1,1.692,0v7.816a3.1,3.1,0,0,1-3.1,3.1h-.254a3.163,3.163,0,1,1-2.2-3.894,3.2,3.2,0,0,1,2.2,2.2h.254a1.4,1.4,0,0,0,1.411-1.411V16.055h-2.652a4.678,4.678,0,0,1-3.133-8.183c-.028-.282-.056-.564-.056-.847a6.962,6.962,0,0,1,12.641-4.091l.959-.085a5.394,5.394,0,0,1,5.361,4.4,4.713,4.713,0,0,1-2.285,8.8h-2.653v3.471h0a1.414,1.414,0,0,0,1.41,1.411h.255a3.217,3.217,0,1,1,0,1.693Zm-16.056-.875v.028a1.5,1.5,0,1,0,2.962.423,1.064,1.064,0,0,0,0-.423,1.457,1.457,0,0,0-1.467-1.467h-.052A1.458,1.458,0,0,0,11639.674,21.755Zm18.9-1.241a1.468,1.468,0,0,0-1.27,1.27,1.482,1.482,0,1,0,2.963,0,1.5,1.5,0,0,0-1.484-1.284A1.529,1.529,0,0,0,11658.578,20.514Zm-8.605.987a.849.849,0,0,1-.847-.846V10.581a.846.846,0,1,1,1.692,0V20.655a.832.832,0,0,1-.847.846Z" transform="translate(-11638.001)" fill="#fff"/>
</svg>
