<svg xmlns="http://www.w3.org/2000/svg" width="15" height="15" viewBox="0 0 15 15">
  <path id="globe" d="M12.8,2.2a7.5,7.5,0,1,0,0,10.6A7.494,7.494,0,0,0,12.8,2.2Zm-.313,9.535a7.516,7.516,0,0,0-1.12-.829,12.127,12.127,0,0,0,.452-2.926h2.2a6.483,6.483,0,0,1-1.537,3.755ZM.975,7.977h2.2A12.127,12.127,0,0,0,3.631,10.9a7.516,7.516,0,0,0-1.12.829A6.484,6.484,0,0,1,.975,7.977ZM2.511,3.266a7.516,7.516,0,0,0,1.12.829,12.127,12.127,0,0,0-.452,2.926H.975A6.484,6.484,0,0,1,2.511,3.266Zm4.511.928A6.492,6.492,0,0,1,4.795,3.63a4.154,4.154,0,0,1,2.227-2.6Zm0,.957v1.87H4.135A11.258,11.258,0,0,1,4.5,4.544,7.448,7.448,0,0,0,7.022,5.152Zm0,2.825v1.87a7.448,7.448,0,0,0-2.525.608,11.258,11.258,0,0,1-.362-2.477Zm0,2.827v3.169a4.154,4.154,0,0,1-2.227-2.6A6.492,6.492,0,0,1,7.022,10.8Zm.956,0a6.492,6.492,0,0,1,2.227.564,4.153,4.153,0,0,1-2.227,2.6Zm0-.957V7.977h2.887a11.258,11.258,0,0,1-.362,2.477,7.448,7.448,0,0,0-2.525-.608Zm0-2.825V5.152A7.448,7.448,0,0,0,10.5,4.544a11.258,11.258,0,0,1,.362,2.477Zm0-2.827V1.026a4.154,4.154,0,0,1,2.227,2.6A6.492,6.492,0,0,1,7.978,4.194ZM10.124,1.5a6.514,6.514,0,0,1,1.694,1.082,6.568,6.568,0,0,1-.769.583A7.194,7.194,0,0,0,10.124,1.5ZM3.951,3.168a6.57,6.57,0,0,1-.769-.583A6.514,6.514,0,0,1,4.876,1.5a7.2,7.2,0,0,0-.925,1.665Zm0,8.664A7.2,7.2,0,0,0,4.876,13.5a6.514,6.514,0,0,1-1.694-1.082A6.568,6.568,0,0,1,3.951,11.831Zm7.1,0a6.571,6.571,0,0,1,.769.583A6.514,6.514,0,0,1,10.124,13.5a7.194,7.194,0,0,0,.925-1.665Zm.772-4.81A12.127,12.127,0,0,0,11.369,4.1a7.518,7.518,0,0,0,1.12-.829,6.484,6.484,0,0,1,1.537,3.755Z" transform="translate(0 0)" fill="#06529c"/>
</svg>
