<svg xmlns="http://www.w3.org/2000/svg" width="25.052" height="25" viewBox="0 0 25.052 25">
  <path id="Union_1" data-name="Union 1" d="M11640.439,25a2.44,2.44,0,0,1-2.439-2.439V2.439A2.44,2.44,0,0,1,11640.439,0h20.168a2.446,2.446,0,0,1,2.444,2.439V22.561a2.443,2.443,0,0,1-2.439,2.439Zm-1.219-2.435a1.219,1.219,0,0,0,1.218,1.218h20.169a1.229,1.229,0,0,0,1.226-1.222V17.073h-22.612Zm0-6.714h22.612V9.145h-22.612Zm0-13.411V7.923h22.611V2.436a1.218,1.218,0,0,0-1.218-1.218h-20.172A1.223,1.223,0,0,0,11639.218,2.439Zm1.83,17.988a2.133,2.133,0,1,1,2.133,2.133A2.134,2.134,0,0,1,11641.048,20.428Zm1.218,0a.915.915,0,1,0,.915-.915A.917.917,0,0,0,11642.266,20.428Zm14.992,1.507a.609.609,0,0,1,0-1.218h.608a.609.609,0,1,1,0,1.218Zm-3.049,0a.609.609,0,0,1,0-1.218h.609a.609.609,0,0,1,0,1.218Zm-3.041,0a.609.609,0,0,1,0-1.218h.609a.609.609,0,0,1,0,1.218Zm7.613-1.815a.609.609,0,0,1,0-1.218h.608a.609.609,0,0,1,0,1.218Zm-3.048,0a.609.609,0,1,1,0-1.218h.608a.609.609,0,0,1,0,1.218Zm-3.04,0a.609.609,0,0,1,0-1.218h.608a.609.609,0,0,1,0,1.218Zm-11.646-7.62a2.133,2.133,0,1,1,2.133,2.133A2.134,2.134,0,0,1,11641.048,12.5Zm1.218,0a.915.915,0,1,0,.915-.915A.917.917,0,0,0,11642.266,12.5Zm14.992,1.508a.609.609,0,0,1,0-1.218h.608a.609.609,0,1,1,0,1.218Zm-3.049,0a.609.609,0,0,1,0-1.218h.609a.609.609,0,0,1,0,1.218Zm-3.041,0a.609.609,0,0,1,0-1.218h.609a.609.609,0,0,1,0,1.218Zm7.613-1.815a.609.609,0,0,1,0-1.218h.608a.609.609,0,0,1,0,1.218Zm-3.048,0a.609.609,0,1,1,0-1.218h.608a.609.609,0,0,1,0,1.218Zm-3.04,0a.609.609,0,0,1,0-1.218h.608a.609.609,0,0,1,0,1.218Zm-11.646-7.621a2.133,2.133,0,1,1,2.133,2.133A2.134,2.134,0,0,1,11641.048,4.572Zm1.218,0a.915.915,0,1,0,.915-.915A.917.917,0,0,0,11642.266,4.572Zm8.9,1.513a.609.609,0,1,1,0-1.218h.608a.609.609,0,0,1,0,1.218Zm6.084,0a.609.609,0,1,1,0-1.218h.6a.609.609,0,1,1,0,1.218Zm-3.048,0a.609.609,0,1,1,0-1.218h.608a.609.609,0,0,1,0,1.218Zm4.576-1.814a.609.609,0,0,1,0-1.218h.608a.609.609,0,1,1,0,1.218Zm-3.048,0a.609.609,0,1,1,0-1.218h.608a.609.609,0,0,1,0,1.218Zm-3.04,0a.609.609,0,1,1,0-1.218h.608a.609.609,0,0,1,0,1.218Z" transform="translate(-11638)" fill="#fff"/>
</svg>
