<svg xmlns="http://www.w3.org/2000/svg" width="15" height="15" viewBox="0 0 15 15">
  <g id="icons_utility_info-copy" data-name="icons/utility/info-copy" transform="translate(-0.615 -0.615)">
    <path id="Mask" d="M8.115.615a7.5,7.5,0,1,0,7.5,7.5A7.482,7.482,0,0,0,8.115.615Zm0,3.781a.938.938,0,1,1-.937.938A.921.921,0,0,1,8.115,4.4Zm1.563,6.563a.289.289,0,0,1-.312.281h-2.5a.287.287,0,0,1-.313-.281v-.625a.341.341,0,0,1,.313-.344.287.287,0,0,0,.312-.281V8.459a.341.341,0,0,0-.312-.344.287.287,0,0,1-.313-.281V7.209a.341.341,0,0,1,.313-.344H8.74a.342.342,0,0,1,.312.344v2.5a.289.289,0,0,0,.313.281.342.342,0,0,1,.313.344Z" transform="translate(0 0)" fill="#06529c"/>
  </g>
</svg>
