<svg xmlns="http://www.w3.org/2000/svg" width="25" height="22.174" viewBox="0 0 25 22.174">
  <path id="Union_4" data-name="Union 4" d="M16.113,21.226a1.893,1.893,0,0,1-.153-.338l-5.376.005a.565.565,0,0,1-.566-.565h0a.565.565,0,0,1,.565-.566l5.35-.005a1.894,1.894,0,1,1,.18,1.468Zm1.26-1.612a.767.767,0,1,0,.382-.1A.767.767,0,0,0,17.373,19.614Zm-12.126.654a1.889,1.889,0,0,1,.535-1.319l-2.67-4.635h0a.565.565,0,0,1,.98-.564l2.683,4.657a1.9,1.9,0,1,1-1.529,1.86Zm1.131,0a.767.767,0,1,0,.766-.766A.767.767,0,0,0,6.378,20.268Zm12.67-2.534a.565.565,0,0,1-.189-.777l2.791-4.592a1.9,1.9,0,1,1,.953.609l-2.778,4.57h0a.566.566,0,0,1-.777.19Zm3.686-7.26h0a.767.767,0,1,0,.368-.094A.768.768,0,0,0,22.734,10.474ZM12.41,16.835a.528.528,0,0,1,0-1.055,4.7,4.7,0,0,0,4.7-4.7.528.528,0,0,1,1.055,0,5.759,5.759,0,0,1-5.754,5.752Zm-.528-2.428a.528.528,0,0,1,.528-.527,2.8,2.8,0,0,0,2.8-2.8.528.528,0,0,1,1.055,0,3.855,3.855,0,0,1-3.852,3.85A.527.527,0,0,1,11.882,14.407Zm-1.33-3.323a1.858,1.858,0,1,1,1.858,1.857A1.86,1.86,0,0,1,10.552,11.084Zm1.056,0a.8.8,0,1,0,.8-.8A.8.8,0,0,0,11.607,11.084ZM.234,11.932A1.9,1.9,0,0,1,2.4,9.191L5.176,4.62h0a.565.565,0,1,1,.966.587L3.351,9.8a1.878,1.878,0,0,1,.21.306A1.9,1.9,0,0,1,.234,11.932Zm1.294-1.585a.767.767,0,1,0,.368-.095A.767.767,0,0,0,1.528,10.347Zm7.029.737A3.856,3.856,0,0,1,12.41,7.233a.527.527,0,1,1,0,1.055,2.8,2.8,0,0,0-2.8,2.8.528.528,0,0,1-1.056,0Zm-1.9,0A5.76,5.76,0,0,1,12.41,5.332a.527.527,0,1,1,0,1.055,4.7,4.7,0,0,0-4.7,4.7.528.528,0,0,1-.528.528h0A.528.528,0,0,1,6.656,11.084Zm14.177-2.67L18.149,3.757a1.9,1.9,0,1,1,.993-.542l2.67,4.634h0a.566.566,0,0,1-.98.564ZM17.014,1.9a.767.767,0,1,0,.767-.766A.768.768,0,0,0,17.014,1.9ZM6.149,3.588A1.9,1.9,0,1,1,8.921,1.425l5.35.006h0a.565.565,0,1,1,0,1.13L8.894,2.555a1.9,1.9,0,0,1-1.8,1.286A1.887,1.887,0,0,1,6.149,3.588Zm.284-2.025A.767.767,0,1,0,7.1,1.179.766.766,0,0,0,6.433,1.562Z" transform="translate(0)" fill="#0b2740"/>
</svg>
