<svg xmlns="http://www.w3.org/2000/svg" width="28.27" height="23.491" viewBox="0 0 28.27 23.491">
  <g id="menu-button-of-three-horizontal-lines" transform="translate(0 -6)">
    <path id="Path_34" data-name="Path 34" d="M25.534,6H2.736A2.641,2.641,0,0,0,0,8.517a2.641,2.641,0,0,0,2.736,2.517h22.8A2.641,2.641,0,0,0,28.27,8.517,2.641,2.641,0,0,0,25.534,6Z" fill="#0b2740"/>
    <path id="Path_35" data-name="Path 35" d="M25.534,50H2.736a2.526,2.526,0,1,0,0,5.034h22.8a2.526,2.526,0,1,0,0-5.034Z" transform="translate(0 -34.771)" fill="#0b2740"/>
    <path id="Path_36" data-name="Path 36" d="M25.534,94H2.736a2.526,2.526,0,1,0,0,5.034h22.8a2.526,2.526,0,1,0,0-5.034Z" transform="translate(0 -69.543)" fill="#0b2740"/>
  </g>
</svg>
