<svg xmlns="http://www.w3.org/2000/svg" width="25" height="24.895" viewBox="0 0 25 24.895">
  <path id="Path_128" data-name="Path 128" d="M87.723,36.149a1.74,1.74,0,0,0-1.246.5,1.741,1.741,0,1,0,1.246-.5Zm1.527-.592,1.87-1.839a4.25,4.25,0,0,1,1.246-6.482l-.592-1.5A2.747,2.747,0,0,1,88.5,23.03a2.463,2.463,0,0,1,.28-1.184l-1.246-.935a1.793,1.793,0,0,1-1.06.343,1.749,1.749,0,1,1,1.683-1.184l1.246.9a2.843,2.843,0,0,1,1.87-.717,3.584,3.584,0,0,1,.592.031l.561-1.309-.125-.125a1.776,1.776,0,1,1,2.493,0,1.74,1.74,0,0,1-1.4.53l-.561,1.34a2.149,2.149,0,0,1,.405.343,2.779,2.779,0,0,1-.467,4.3l.561,1.5a4.218,4.218,0,0,1,4.051,1.091,2.149,2.149,0,0,1,.343.405l3.552-2.275a2.8,2.8,0,0,1,.841-3.21l-.592-1.184a1.677,1.677,0,0,1-1.558-.467,1.774,1.774,0,0,1,2.493-2.524,1.839,1.839,0,0,1,0,2.524l.592,1.184a3.088,3.088,0,0,1,1.683,0l1.932-3.459a1.731,1.731,0,0,1,.031-2.462,1.763,1.763,0,0,1,2.493,2.493,1.838,1.838,0,0,1-1.62.5l-1.932,3.459a2.771,2.771,0,1,1-3.739,4.082l-.062-.062-3.552,2.306a4.482,4.482,0,0,1,.312,2.306l1.745.467a2.518,2.518,0,0,1,.53-.748,2.777,2.777,0,0,1,4.705,2.4l.841.187a.975.975,0,0,1,.28-.343,1.763,1.763,0,1,1,0,2.493,1.662,1.662,0,0,1-.53-1.122l-.966-.218a2.4,2.4,0,0,1-.966.966l.935,1.62a1.821,1.821,0,0,1,1.62.467,1.768,1.768,0,0,1,0,2.493,1.74,1.74,0,0,1-2.493,0,1.782,1.782,0,0,1-.062-2.431l-1.028-1.807a2.862,2.862,0,0,1-1.434-.187l-1.091,1.932a1.758,1.758,0,0,1,.467,1.184,1.776,1.776,0,1,1-1.776-1.776,1.816,1.816,0,0,1,.405.062l1.122-1.963a2.8,2.8,0,0,1-.841-2.181l-1.745-.5a4.247,4.247,0,0,1-6.42,1.87L90,36.3a1.579,1.579,0,0,1,.28.5,2.793,2.793,0,0,1-.592,3.023,2.776,2.776,0,1,1-.9-4.518,2.229,2.229,0,0,1,.467.249ZM87.193,19.508a.678.678,0,0,0-.218-.5.62.62,0,0,0-.5-.218.717.717,0,0,0,0,1.434.725.725,0,0,0,.717-.717Zm2.368,3.521a1.73,1.73,0,1,0,1.714-1.745A1.729,1.729,0,0,0,89.561,23.029Zm3.989-4.706a.705.705,0,0,0,.717-.717.717.717,0,1,0-.717.717Zm5.828,19.882a.717.717,0,1,0,.717.717A.705.705,0,0,0,99.377,38.206Zm-2.742-9.5a3.206,3.206,0,0,0-4.518,4.55c3.023,2.992,7.479-1.589,4.519-4.55Zm11.811-11.467a.734.734,0,0,0-1.028,0,.716.716,0,1,0,1.028,0Zm-6.731,2.212a.727.727,0,0,0-1.028,1.028.727.727,0,1,0,1.028-1.028Zm6.731,14.8a.727.727,0,1,0-1.028,1.028.727.727,0,0,0,1.028-1.028Zm-2.4,4.238a.7.7,0,0,0-1,0,.734.734,0,0,0,0,1.028.758.758,0,0,0,1,0A.734.734,0,0,0,106.046,38.486ZM105.08,23.84a1.75,1.75,0,0,0-2.431,0,1.719,1.719,0,1,0,2.431,2.431A1.75,1.75,0,0,0,105.08,23.84Zm-1.028,8.2a1.693,1.693,0,0,0-2.431,0,1.719,1.719,0,1,0,2.431,2.431A1.693,1.693,0,0,0,104.052,32.036Z" transform="translate(-84.707 -15.862)" fill="#0b2740"/>
</svg>
