<svg xmlns="http://www.w3.org/2000/svg" width="14.754" height="14.773" viewBox="0 0 14.754 14.773">
  <g id="icons_utility_favorite" data-name="icons/utility/favorite" transform="translate(-0.615 -0.615)">
    <path id="Mask" d="M8.435.954,9.85,5.57a.436.436,0,0,0,.431.277H14.9a.5.5,0,0,1,.277.892L11.419,9.508a.484.484,0,0,0-.154.523L13.05,14.77a.461.461,0,0,1-.708.523L8.312,12.277a.461.461,0,0,0-.554,0L3.7,15.293a.458.458,0,0,1-.708-.523l1.723-4.738a.484.484,0,0,0-.154-.523L.8,6.739a.5.5,0,0,1,.277-.892H5.7c.215,0,.369-.062.431-.277L7.573.923a.449.449,0,0,1,.862.031Z" fill="#fdb913"/>
  </g>
</svg>
