<svg xmlns="http://www.w3.org/2000/svg" width="49.408" height="61.003" viewBox="0 0 49.408 61.003">
  <path id="Union_6" data-name="Union 6" d="M4.006,61A4.049,4.049,0,0,1,0,56.937V10.845A4.049,4.049,0,0,1,4.006,6.778H8.012V4.067A4.049,4.049,0,0,1,12.019,0H45.4a4.049,4.049,0,0,1,4.006,4.067V50.158A4.049,4.049,0,0,1,45.4,54.225H41.4v2.711A4.049,4.049,0,0,1,37.389,61ZM2.672,10.845V56.937a1.349,1.349,0,0,0,1.335,1.355H37.39a1.349,1.349,0,0,0,1.335-1.355V54.226H12.019a4.049,4.049,0,0,1-4.006-4.067V9.49H4.007A1.349,1.349,0,0,0,2.672,10.845Zm8.011-6.778V50.159a1.349,1.349,0,0,0,1.335,1.355H45.4a1.349,1.349,0,0,0,1.335-1.356V4.067A1.349,1.349,0,0,0,45.4,2.712H12.018A1.349,1.349,0,0,0,10.683,4.067Zm20.03,42.024a1.349,1.349,0,0,1-1.335-1.355V37.957A1.349,1.349,0,0,1,30.713,36.6H41.4a1.35,1.35,0,0,1,1.335,1.356v6.778A1.349,1.349,0,0,1,41.4,46.091Zm1.336-2.711H40.06V39.313H32.049ZM16.024,46.091a1.356,1.356,0,0,1,0-2.711H24.7a1.356,1.356,0,0,1,0,2.711Zm0-6.778a1.356,1.356,0,0,1,0-2.711H24.7a1.356,1.356,0,0,1,0,2.711Zm0-6.778a1.356,1.356,0,0,1,0-2.711H41.4a1.356,1.356,0,0,1,0,2.711Zm0-6.778a1.356,1.356,0,0,1,0-2.711H41.4a1.356,1.356,0,0,1,0,2.711Zm0-6.778a1.349,1.349,0,0,1-1.335-1.356V9.489a1.349,1.349,0,0,1,1.335-1.355H41.4a1.349,1.349,0,0,1,1.335,1.355v8.134A1.349,1.349,0,0,1,41.4,18.978Zm1.335-2.711h22.7V10.845H17.36Z" fill="#1b618c"/>
</svg>
