<svg xmlns="http://www.w3.org/2000/svg" width="53.221" height="61.714" viewBox="0 0 53.221 61.714">
  <path id="Union_7" data-name="Union 7" d="M14.283,61.168,9.405,55.041l-7.7,1.4A1.451,1.451,0,0,1,.335,55.95a1.431,1.431,0,0,1-.24-1.432L9.8,29.16A18.444,18.444,0,0,1,12.618,4.721,18.752,18.752,0,0,1,40.957,8.81a18.31,18.31,0,0,1,.577,18.167L53.094,52.6a1.441,1.441,0,0,1-1.486,2.018l-7.841-.9-4.495,6.386a1.449,1.449,0,0,1-1.185.614c-.045,0-.089,0-.134-.006a1.446,1.446,0,0,1-1.184-.839l-10.4-22.861c-.171.01-.358.015-.537.018L16.77,60.785a1.45,1.45,0,0,1-2.487.382Zm-3.149-8.589h0L14.969,57.4l7.808-20.466a17.988,17.988,0,0,1-2.01-.363l-.03-.008a18.121,18.121,0,0,1-1.966-.578h0l-.035-.012a18.4,18.4,0,0,1-3.564-1.744c-.118-.074-.233-.15-.35-.227q-.674-.444-1.313-.951c-.093-.074-.189-.142-.281-.217-.446-.367-.881-.75-1.3-1.161L3.711,53.155l6.028-1.1A1.43,1.43,0,0,1,10,52.033,1.449,1.449,0,0,1,11.134,52.579ZM33.347,35.069q-.716.357-1.463.653c-.181.072-.363.14-.547.206q-.714.257-1.451.457c-.141.039-.279.084-.421.119-.046.011-.09.028-.136.039L38.357,56.39l3.533-5.019a1.455,1.455,0,0,1,1.35-.6l6.171.7L39.69,29.92a18.432,18.432,0,0,1-2.413,2.521c-.134.116-.27.226-.407.339q-.577.474-1.189.9c-.132.092-.261.188-.4.277a18.789,18.789,0,0,1-1.642.972h0C33.545,34.979,33.445,35.021,33.347,35.069ZM24.97,2.878h0A15.724,15.724,0,0,0,13.9,7.445,15.547,15.547,0,0,0,9.308,18.453a15.3,15.3,0,0,0,3.248,9.593,15.785,15.785,0,0,0,10.515,6.02,14.985,14.985,0,0,0,1.758.1,11.354,11.354,0,0,0,2.139-.114,15.782,15.782,0,0,0,13.807-15.6A15.62,15.62,0,0,0,36.111,7.416,15.8,15.8,0,0,0,25.023,2.878Zm0,28.213h0a12.612,12.612,0,0,1-9.028-3.662,12.469,12.469,0,0,1-3.681-8.978,12.464,12.464,0,0,1,3.682-8.976A12.608,12.608,0,0,1,24.97,5.814a12.747,12.747,0,0,1,9.08,3.651,12.59,12.59,0,0,1,0,17.975,12.745,12.745,0,0,1-8.936,3.652Zm0-22.4a9.828,9.828,0,0,0-8.5,4.881,9.715,9.715,0,0,0,0,9.762A9.87,9.87,0,1,0,25.113,8.689Z" transform="translate(0 0)" fill="#1b618c"/>
</svg>
