<svg id="icons_utility_forward" data-name="icons/utility/forward" xmlns="http://www.w3.org/2000/svg" width="17.247" height="13.704" viewBox="0 0 17.247 13.704">
  <path id="Mask" d="M1.119,8.777H13.061a.36.36,0,0,1,.252.611L9.859,12.842a.522.522,0,0,0,0,.755l.791.791a.522.522,0,0,0,.755,0L17.7,8.058a.522.522,0,0,0,0-.755L11.406,1.008a.522.522,0,0,0-.755,0L9.9,1.763a.522.522,0,0,0,0,.755l3.453,3.453a.382.382,0,0,1-.252.647H1.155a.523.523,0,0,0-.54.5V8.2a.556.556,0,0,0,.5.576Z" transform="translate(-0.615 -0.846)" fill="#0b2740"/>
</svg>
