<svg version="1.2" xmlns="http://www.w3.org/2000/svg" viewBox="0 0 69 69" width="69" height="69"><style>.a{fill:#1b618c}</style><path fill-rule="evenodd" class="a" d="m22.8 8c3.5-1.5 7.2-2.4 11-2.5 3.8-0.2 7.6 0.4 11.2 1.6 3.6 1.3 6.9 3.2 9.8 5.7l3-3.1v-4.9q0-0.5 0.2-0.9 0.3-0.4 0.7-0.7 0.4-0.3 0.8-0.4 0.5-0.1 1 0.1 0.3 0.1 0.6 0.3 0.2 0.2 0.4 0.4 0.2 0.3 0.3 0.6 0.1 0.3 0 0.6v3.7h3.7q0.4 0 0.8 0.1 0.3 0.2 0.6 0.4 0.3 0.3 0.5 0.7 0.1 0.4 0.1 0.8 0 0.4-0.1 0.7-0.2 0.4-0.5 0.7-0.3 0.3-0.6 0.5-0.4 0.1-0.8 0.1h-4.9l-3 3.1c7.8 9 9.6 21.7 4.6 32.5-5.1 10.8-16.1 17.5-28 17.2-11.9-0.3-22.5-7.6-27-18.7-4.5-11-2-23.7 6.3-32.2 2.7-2.7 5.8-4.9 9.3-6.4zm-12.3 37.6c3.8 9.7 13.1 16.3 23.6 16.6 10.5 0.3 20.2-5.6 24.7-15.1 4.5-9.5 2.9-20.8-4.1-28.7l-4.3 4.4c6.7 8.2 5.8 20.3-2.1 27.5-7.9 7.1-20 6.8-27.5-0.7-7.6-7.6-7.9-19.7-0.7-27.6 7.1-7.9 19.2-8.8 27.5-2.1l4.3-4.3c-2.5-2.1-5.4-3.7-8.5-4.7-3.1-1.1-6.3-1.6-9.6-1.4-3.3 0.1-6.5 0.9-9.5 2.2-3 1.3-5.7 3.2-8 5.5-7.4 7.5-9.7 18.6-5.8 28.4zm9.2-4.1c2.3 6 7.8 10.1 14.2 10.4 6.4 0.4 12.4-3 15.3-8.7 2.9-5.7 2.3-12.5-1.7-17.5l-4.4 4.3c2.9 4.3 2 10-2 13.3-4 3.2-9.7 2.9-13.4-0.7-3.6-3.6-3.9-9.4-0.7-13.4 3.3-4 9-4.8 13.3-2l4.4-4.3c-1.6-1.2-3.3-2.1-5.2-2.7-1.9-0.5-3.8-0.8-5.7-0.6-2 0.1-3.9 0.6-5.7 1.4-1.7 0.8-3.3 1.9-4.7 3.3-4.5 4.5-6 11.3-3.7 17.2zm9.3-4c0.7 2.2 2.5 3.8 4.8 4.2 2.2 0.3 4.5-0.6 5.8-2.4 1.4-1.8 1.6-4.3 0.6-6.3l-4.1 4q-0.1 0.2-0.3 0.3-0.1 0.1-0.3 0.2-0.2 0.1-0.4 0.1-0.2 0.1-0.4 0.1-0.4 0-0.7-0.1-0.4-0.1-0.7-0.4-0.3-0.3-0.5-0.6-0.2-0.4-0.2-0.8 0-0.2 0.1-0.4 0-0.2 0.1-0.4 0-0.2 0.1-0.3 0.1-0.2 0.3-0.4c0 0 4.1-4.1 4.2-4.1q-0.9-0.4-1.8-0.6-1-0.1-1.9 0.1-0.9 0.1-1.7 0.6-0.9 0.4-1.5 1.1c-1.6 1.6-2.2 4-1.5 6.1z"/></svg>