<svg xmlns="http://www.w3.org/2000/svg" width="15" height="15" viewBox="0 0 15 15">
  <g id="icons_utility_user-copy" data-name="icons/utility/user-copy" transform="translate(-0.615 -0.615)">
    <path id="Mask" d="M15.615,13.428v.687a1.521,1.521,0,0,1-1.5,1.5h-12a1.521,1.521,0,0,1-1.5-1.5v-.687c0-1.812,2.125-2.937,4.125-3.812l.187-.094a.5.5,0,0,1,.469.031,4.849,4.849,0,0,0,2.687.812,5.031,5.031,0,0,0,2.687-.812.5.5,0,0,1,.469-.031l.188.094c2.062.875,4.187,1.969,4.187,3.812ZM8.115.615A3.93,3.93,0,0,1,11.834,4.74,3.93,3.93,0,0,1,8.115,8.865,3.93,3.93,0,0,1,4.4,4.74,3.93,3.93,0,0,1,8.115.615Z" fill="#fff"/>
  </g>
</svg>
